# xmcd
#
# Track frame offsets:
# 150
# 13955
# 27370
# 42185
# 55725
# 70200
# 84210
# 100405
# 114260
# 128400
# 139810
# 151980
# 164005
# 179350
# 193500
# 204925
# 219250
#
# Disc length: 3138 seconds
#
#
# Revision: 0
# Processed by: cddbd v1.5.2PL0 Copyright (c) Steve Scherf et al.
# Submitted via: FreeRIP 2.95 
#
DISCID=e00c4011
DTITLE=Bonde Do Forro - Vol 04
DYEAR=2007
DGENRE=Forro
TTITLE0=agarra agarra
TTITLE1=diz pro meu olhar
TTITLE2=agora vai
TTITLE3=ainda sinto o beijo da primeira vez
TTITLE4=teu sorrizo a tua voz
TTITLE5=depois daquele beijo
TTITLE6=passou da conta
TTITLE7=90% de você em mim
TTITLE8=nossa história de amor
TTITLE9=cabaré ambulante
TTITLE10=o site da maria birinyte
TTITLE11=ó meu amor
TTITLE12=banho de espulma
TTITLE13=primeiro amor
TTITLE14=aprenda coração
TTITLE15=um anjo
TTITLE16=me esqueça
EXTD=
EXTT0=
EXTT1=
EXTT2=
EXTT3=
EXTT4=
EXTT5=
EXTT6=
EXTT7=
EXTT8=
EXTT9=
EXTT10=
EXTT11=
EXTT12=
EXTT13=
EXTT14=
EXTT15=
EXTT16=
PLAYORDER=
